<svg xmlns="http://www.w3.org/2000/svg" width="1200" height="680" viewBox="0 0 1200 680">
    <defs><marker id="a" markerWidth="10" markerHeight="10" refX="8" refY="3" orient="auto"><path d="M0,0 L0,6 L9,3 z" fill="#000"/></marker></defs><rect width="1200" height="680" fill="#fff"/>
    <g font-family="Times New Roman" text-anchor="middle"><text x="600" y="45" font-size="31" font-weight="bold">The four retrieval decisions</text>
    <rect x="420" y="80" width="360" height="70" rx="30" fill="#2C3E6B" stroke="#000" stroke-width="4"/><text x="600" y="124" fill="#fff" font-size="24" font-weight="bold">Question + state</text>
    <line x1="600" y1="150" x2="600" y2="205" stroke="#000" stroke-width="4" marker-end="url(#a)"/>
    <polygon points="600,210 770,285 600,360 430,285" fill="#D9D9D9" stroke="#000" stroke-width="3"/><text x="600" y="279" font-size="25" font-weight="bold">WHEN?</text><text x="600" y="309" font-size="20">retrieve now or answer?</text>
    <rect x="80" y="420" width="250" height="105" fill="#F2F2F2" stroke="#000" stroke-width="3"/><text x="205" y="458" font-size="23" font-weight="bold">WHAT?</text><text x="205" y="500" font-size="18">query wording</text>
    <rect x="365" y="420" width="250" height="105" fill="#D9D9D9" stroke="#000" stroke-width="3"/><text x="490" y="458" font-size="23" font-weight="bold">WHERE?</text><text x="490" y="500" font-size="18">source choice</text>
    <rect x="650" y="420" width="250" height="105" fill="#808080" stroke="#000" stroke-width="3"/><text x="775" y="458" fill="#fff" font-size="21" font-weight="bold">COUNT?</text><text x="775" y="500" fill="#fff" font-size="18">retrieval budget</text>
    <rect x="935" y="420" width="190" height="105" rx="28" fill="#2C3E6B" stroke="#000" stroke-width="5"/><text x="1030" y="458" fill="#fff" font-size="23" font-weight="bold">STOP</text><text x="1030" y="500" fill="#fff" font-size="17">quality cap</text>
    <line x1="520" y1="348" x2="230" y2="412" stroke="#000" stroke-width="3" marker-end="url(#a)"/><line x1="570" y1="358" x2="500" y2="412" stroke="#000" stroke-width="3" marker-end="url(#a)"/><line x1="640" y1="358" x2="755" y2="412" stroke="#000" stroke-width="3" marker-end="url(#a)"/><line x1="690" y1="348" x2="1010" y2="412" stroke="#000" stroke-width="3" marker-end="url(#a)"/>
    <path d="M775 525 C775 615 600 620 600 370" fill="none" stroke="#000" stroke-width="3" stroke-dasharray="10 8" marker-end="url(#a)"/><text x="690" y="608" font-size="20">evidence changes state; decide again</text></g></svg>